<svg width="188" height="37" viewBox="0 0 188 37" fill="none" xmlns="http://www.w3.org/2000/svg">
<path d="M49.4903 33.9786C48.6921 33.9786 47.2418 33.2778 46.1287 31.7278C45.1169 30.3158 37.1908 18.8072 35.7968 16.8007C39.9453 12.4053 44.7347 7.341 44.9821 7.10751C45.3981 6.70406 46.6572 6.20506 47.253 6.20506H48.3885V5.27084H39.5406V6.17316H41.4182C42.0253 6.17316 42.7223 7.04372 42.1376 7.67016C41.4856 8.39215 31.6821 18.8709 29.9843 20.6651V8.22231C29.9843 7.2986 30.4228 6.25808 31.5021 6.25808H32.9524V5.3026H22.6879V6.28997H23.9021C24.5991 6.28997 25.5548 6.89515 25.5548 8.25408V32.1418C25.5548 32.9275 24.4754 33.9468 23.5985 33.9468H22.6316V34.8705H33.0198V33.9786C33.0198 33.9786 32.4015 33.9468 31.7944 33.9468C31.1761 33.9468 29.9731 33.1398 29.9731 31.9082V22.9584C30.4341 22.4699 31.4796 21.3551 32.8175 19.9431C34.2228 21.9285 40.6986 31.1756 41.1708 31.8765C41.7105 32.6513 41.317 33.9468 40.5299 33.9468H38.9896V34.8384H50.2774V34.021C50.2998 34.021 50.2998 33.9786 49.4903 33.9786Z" fill="white"/>
<path d="M10.2645 17.1984C7.31895 16.0305 3.67638 14.7991 3.67638 11.253C3.67638 7.70689 6.73435 5.93401 9.38764 5.93401C12.0296 5.93401 14.7504 7.5158 15.9308 8.81107C18.2356 11.3273 18.2356 13.5887 18.2356 13.5887L19.5397 13.6205V5.23329H18.4604C18.4604 5.23329 18.0894 6.48604 16.4705 6.48604C14.8628 6.48604 14.4019 4.56445 8.94916 4.56445C3.50768 4.56445 0.146177 7.96177 0.146177 12.3253C0.146177 16.6888 2.6757 19.2687 6.35208 20.67C10.0172 22.0716 16.8414 23.7065 16.8414 28.2186C16.8414 32.7307 14.0083 33.9517 10.4107 33.9517C6.80179 33.9517 4.35089 31.7009 3.19291 30.4481C1.36037 28.4416 1.12428 25.8617 1.12428 25.8617H0V35.0982H0.753247C0.753247 35.0982 1.59646 33.3253 2.75449 33.3253C3.90123 33.3253 5.96982 35.5443 11.3326 35.5443C16.6954 35.5443 21.5296 33.5481 21.5296 26.7429C21.5409 20.5639 13.2214 18.3768 10.2645 17.1984Z" fill="white"/>
<path d="M43.2166 20.6392H54.2119V19.4501H43.2166V20.6392Z" fill="white"/>
<path d="M65.8142 33.936H65.0385C64.4425 33.936 63.2283 33.1292 63.2283 31.8977V8.22229C63.2283 7.29858 63.6556 6.26869 64.7348 6.26869H64.881H66.1065C66.8035 6.26869 67.7592 6.89513 67.7592 8.25406V32.1313H67.7705C67.7705 32.9169 66.6798 33.936 65.8142 33.936ZM72.2 31.9082V8.22229C72.2 7.29858 72.6498 6.25806 73.7065 6.25806H75.1681V5.30258H55.9319V6.28995H57.1574C57.8319 6.28995 58.7988 6.89513 58.7988 8.25406V32.1418C58.7988 32.9275 57.7307 33.9468 56.8425 33.9468H55.8756V34.8705H75.213V33.9573H74.01C73.4029 33.9573 72.2 33.1292 72.2 31.9082Z" fill="white"/>
<path d="M134.823 4.75039C134.605 4.5746 134.385 4.3988 134.156 4.23325L134.145 4.223C134.134 4.21263 134.122 4.20226 134.111 4.20226C134.013 4.12992 133.914 4.05745 133.815 3.99548C133.455 3.74721 133.105 3.52993 132.732 3.33352C131.976 2.91982 131.188 2.57847 130.355 2.3302C129.523 2.07183 128.68 1.87529 127.815 1.79257V1.7822C128.691 1.84417 129.545 2.04071 130.377 2.27861C131.21 2.53712 132.02 2.85772 132.775 3.27142C133.159 3.45758 133.52 3.69548 133.882 3.92301C134.243 4.17128 134.572 4.41941 134.911 4.69867C135.344 5.07191 135.748 5.4764 136.119 5.91045L136.143 5.99835C135.728 5.55107 135.287 5.13673 134.823 4.75039ZM132.973 5.49507C132.973 5.49507 135.13 6.69479 136.323 8.55635C136.258 8.45302 135.13 6.96367 132.973 5.49507ZM130.705 4.71941C132.108 5.1331 133.094 6.14666 133.094 6.14666C132.337 5.4226 130.705 4.71941 130.705 4.71941ZM132.535 6.67418C132.404 6.57059 132.218 6.41554 131.944 6.219C131.199 5.68124 130.52 5.40199 130.52 5.40199C131.242 5.6089 132.119 6.30171 132.535 6.67418C132.732 6.83961 132.786 6.90157 132.786 6.90157C132.786 6.90157 132.688 6.80862 132.535 6.67418ZM129.874 5.27791C129.906 5.28816 129.928 5.29853 129.961 5.29853L130.038 5.35026C130.06 5.36063 130.071 5.36063 130.081 5.38137C130.027 5.34001 129.95 5.3089 129.874 5.27791ZM127.508 3.97474C130.17 4.34707 132.611 6.32245 132.611 6.32245C130.18 4.54361 127.508 3.97474 127.508 3.97474ZM129.71 4.21263L129.008 3.94375C129.216 4.01609 129.534 4.10918 129.71 4.21263ZM129.107 2.38206C130.848 2.52687 132.173 3.54043 132.173 3.54043C130.619 2.59921 129.107 2.38206 129.107 2.38206ZM129.797 1.74084C129.567 1.67875 129.162 1.55455 129.162 1.55455C129.567 1.58566 130.027 1.81319 129.797 1.74084ZM130.301 1.64763C130.301 1.64763 129.03 1.21332 128.088 1.21332C128.099 1.20295 129.041 1.01678 130.301 1.64763ZM131.845 2.37169L131.363 2.17515C131.374 2.16478 131.614 2.20626 131.845 2.37169ZM129.293 9.43559C129.293 9.43559 130.301 10.0561 130.804 10.749C130.804 10.749 130.421 10.2836 129.293 9.43559ZM128.045 6.03283C130.17 6.47764 131.757 7.87377 131.757 7.87377C130.125 6.66381 128.045 6.03283 128.045 6.03283ZM123.774 6.08456C124.628 5.67086 125.734 5.85703 125.734 5.85703C124.759 5.76395 123.774 6.08456 123.774 6.08456ZM125.646 3.59203C125.603 3.59203 125.569 3.58166 125.526 3.58166C125.449 3.57141 125.362 3.56104 125.285 3.56104C125.372 3.55067 125.449 3.55067 125.537 3.55067C125.58 3.55067 125.624 3.54043 125.657 3.55067C125.701 3.56104 125.931 3.59203 125.964 3.61277C125.909 3.6024 125.69 3.59203 125.646 3.59203ZM119.634 2.52687C119.524 2.57847 119.327 2.66132 119.327 2.66132C119.492 2.53712 119.743 2.48539 119.634 2.52687ZM121.331 1.16159C121.244 1.19271 119.787 1.67875 119.765 1.67875C119.689 1.68912 119.831 1.62702 119.831 1.62702C119.831 1.62702 120.368 1.36851 120.85 1.24431C121.342 1.12024 121.342 1.12024 121.342 1.12024C121.342 1.12024 121.43 1.10987 121.331 1.16159ZM186.771 5.39045H175.956C175.748 5.39045 175.572 5.528 175.53 5.72467L172.043 23.3997H171.824L167.744 5.71482C167.693 5.528 167.527 5.39045 167.32 5.39045H156.628C156.431 5.39045 156.253 5.51828 156.213 5.70496L151.916 23.3997H151.697L148.552 5.73439C148.521 5.53785 148.334 5.39045 148.126 5.39045H137.262C136.548 4.59106 136.006 4.10438 135.93 4.03683C135.798 3.92301 135.634 3.81955 135.503 3.70585C134.441 2.81637 133.213 2.00972 131.79 1.39949C129.852 0.582478 127.99 0.251499 126.292 0.230755L125.362 0.199768L124.989 0.220383C124.814 0.220383 124.661 0.241123 124.54 0.241123C124.365 0.251495 124.266 0.27224 124.266 0.27224L123.719 0.323967C123.544 0.344452 123.357 0.375565 123.182 0.406677C122.81 0.458408 122.47 0.541122 122.098 0.613464C121.386 0.778889 120.685 0.985798 120.006 1.23394C119.327 1.49258 118.659 1.7822 118.046 2.16478L118.057 2.17515C118.67 1.80281 119.338 1.52356 120.028 1.27542C120.707 1.02715 121.419 0.840984 122.131 0.685802C122.416 0.634075 122.711 0.582478 122.996 0.53075C120.181 1.10987 118.353 2.26823 118.353 2.26823C118.561 2.18552 118.78 2.11305 118.988 2.01997C118.418 2.29922 117.871 2.59922 117.345 2.94057L117.356 2.95081C118.122 2.47514 118.944 2.07183 119.798 1.75109C119.853 1.73047 119.919 1.70973 119.973 1.68912C120.368 1.57529 120.729 1.47197 121.09 1.36851C120.28 1.59604 119.492 1.8959 118.769 2.3302L118.78 2.34071C119.524 1.93726 120.335 1.65813 121.167 1.44085C121.309 1.39949 121.474 1.36851 121.616 1.33739C121.287 1.44085 120.97 1.58566 120.663 1.73047L120.674 1.74084C121.364 1.4201 122.131 1.21333 122.886 1.07888C123.084 1.03753 123.281 1.02715 123.467 0.99617C122.766 1.14098 122.087 1.34776 121.43 1.62702L121.441 1.63739C122.109 1.37875 122.81 1.20295 123.5 1.06851C123.697 1.02715 123.905 1.00654 124.091 0.975426C125.11 0.85136 125.778 0.85136 126.161 0.872101C127.256 0.954815 127.705 1.20295 127.344 1.16159C126.511 1.09949 124.387 0.903088 121.868 1.57529C121.309 1.7201 120.74 1.92701 120.225 2.12342C120.061 2.17515 119.886 2.23725 119.732 2.28898C118.988 2.5681 118.254 2.8681 117.553 3.21969C117.564 3.23006 117.575 3.24043 117.575 3.24043C118.09 2.99229 118.626 2.77501 119.174 2.5681C118.55 2.8681 118.035 3.13698 117.663 3.3645C117.684 3.38525 117.706 3.41623 117.717 3.44722C118.407 3.16796 119.612 2.75427 121.036 2.42342C120.707 2.52687 120.4 2.64057 120.083 2.77501C119.579 2.9818 119.086 3.20945 118.626 3.51969L118.637 3.52993C119.097 3.23006 119.59 3.02328 120.105 2.82674C120.608 2.64057 121.134 2.4544 121.66 2.31996C121.791 2.28898 121.934 2.25787 122.054 2.23725L122.459 2.17515C122.536 2.15441 122.613 2.15441 122.689 2.13379C122.175 2.25786 121.66 2.43366 121.178 2.66132L121.189 2.67156C122.054 2.27861 122.985 2.08207 123.938 1.99936C124.409 1.958 124.891 1.958 125.372 1.94763H126.019C126.424 1.96824 126.84 2.01997 127.245 2.08207C127.596 2.13379 127.924 2.20627 128.275 2.28898C127.738 2.20627 127.18 2.13379 126.632 2.10281C126.5 2.09244 126.347 2.09244 126.216 2.08207C126.084 2.08207 125.931 2.07183 125.789 2.07183H125.362L124.945 2.09244C124.387 2.14417 123.839 2.23725 123.325 2.42342C123.85 2.24749 124.398 2.15441 124.956 2.12342L125.372 2.10281H125.8C125.931 2.10281 126.084 2.11305 126.216 2.12342C126.347 2.1338 126.5 2.13379 126.632 2.15441C127.18 2.19589 127.738 2.26823 128.286 2.37169C128.647 2.43366 129.008 2.50613 129.359 2.57847C130.433 2.91982 131.407 3.29216 132.294 3.70585C132.305 3.71622 132.315 3.71622 132.326 3.7266C132.393 3.75758 132.469 3.79894 132.535 3.82993C134.736 4.95731 135.963 6.75676 136.062 6.90157C134.911 5.53642 133.651 5.16409 133.651 5.16409C133.696 5.1952 133.74 5.23643 133.783 5.26755C133.882 5.35026 133.981 5.43297 134.079 5.51581C134.32 5.73284 134.56 5.97086 134.791 6.20863C135.141 6.58109 135.459 6.96367 135.788 7.34638C135.656 7.21194 135.514 7.0775 135.382 6.94306C134.879 6.44653 134.342 5.98123 133.772 5.53643C133.213 5.09175 132.622 4.67805 131.998 4.31596L131.516 4.04721C131.352 3.96436 131.188 3.89202 131.024 3.81955L130.783 3.71622C130.695 3.68511 130.619 3.65413 130.53 3.61277L130.016 3.42661V3.43697L130.509 3.65413C130.585 3.68511 130.673 3.71622 130.75 3.75758L130.99 3.87128C131.154 3.95399 131.308 4.02647 131.472 4.12992L131.944 4.3988C132.546 4.77114 133.148 5.15372 133.707 5.59852C133.947 5.78469 134.199 5.98123 134.43 6.17764C133.575 5.50544 132.546 4.85385 131.341 4.3367C130.366 3.90227 129.403 3.65413 128.505 3.48857L128.724 3.51969C128.165 3.37487 127.366 3.20945 126.785 3.15772L126.577 3.13698L126.358 3.12674C126.216 3.12674 126.062 3.10599 125.92 3.10599C125.624 3.10599 125.34 3.10599 125.055 3.12674C124.474 3.14735 123.905 3.20945 123.335 3.30253C122.766 3.38525 122.207 3.50932 121.649 3.66437V3.67474C122.197 3.52993 122.766 3.41623 123.335 3.34389C123.905 3.27142 124.485 3.21969 125.055 3.20945C125.351 3.19908 125.635 3.19908 125.92 3.20945C126.062 3.20945 126.216 3.23006 126.347 3.23006L126.566 3.24043L126.785 3.2508L127.223 3.28179C127.366 3.29216 127.519 3.31277 127.661 3.33352C127.727 3.34389 127.804 3.34389 127.869 3.35413L128.045 3.38525C126.161 3.13698 124.551 3.35413 123.675 3.52993C123.675 3.52993 123.412 3.65413 123.346 3.67474C123.281 3.69548 124.223 3.65413 124.255 3.65413C125.471 3.66437 127.355 3.8403 129.085 4.70904L128.734 4.56423L128.559 4.49189L128.384 4.42979C128.264 4.38843 128.143 4.34707 128.012 4.31596C127.771 4.24362 127.508 4.18152 127.256 4.14029C126.752 4.02646 126.238 3.95399 125.734 3.91277C125.219 3.87128 124.704 3.87128 124.19 3.89202V3.90227C124.693 3.88165 125.219 3.91277 125.723 3.96437C126.227 4.01609 126.741 4.0988 127.234 4.223C127.486 4.27473 127.727 4.34707 127.968 4.41941C128.088 4.4609 128.198 4.50212 128.329 4.53324L128.505 4.59534L128.68 4.66768L129.041 4.80212C129.151 4.85385 129.271 4.90558 129.392 4.95731C129.4 4.96119 129.406 4.96457 129.412 4.96794C128.919 4.81677 128.416 4.6752 127.891 4.55386C127.53 4.47114 127.168 4.38843 126.796 4.30572C126.49 4.24362 126.183 4.20226 125.876 4.20226C126.194 4.21263 126.49 4.27473 126.796 4.32646C127.168 4.40917 127.519 4.49189 127.869 4.58497C128.297 4.69867 128.734 4.83311 129.151 4.96755C128.986 4.92632 128.8 4.90558 128.625 4.90558V4.91582C129.019 4.97792 129.37 5.10199 129.742 5.26755C130.103 5.41236 130.444 5.58815 130.783 5.78469C130.815 5.79506 130.837 5.81568 130.869 5.82605C130.979 5.89839 131.1 5.98123 131.221 6.08456C131.143 6.0432 131.068 6.00185 130.99 5.97086C130.53 5.75358 130.049 5.55717 129.545 5.46408C130.027 5.62951 130.476 5.85703 130.914 6.09493C131.341 6.3432 131.769 6.62232 132.162 6.91195C132.348 7.06713 132.568 7.21194 132.743 7.37737C132.831 7.44984 132.928 7.53255 133.027 7.62564C133.116 7.70835 133.202 7.78069 133.312 7.88427C133.356 7.9255 133.4 7.95649 133.444 8.00834L133.575 8.13241L133.849 8.39092C133.904 8.44265 133.947 8.484 133.992 8.53573H133.958C133.554 8.15302 133.126 7.79106 132.667 7.47045C132.173 7.10849 131.659 6.79825 131.111 6.52937C131.363 6.68442 131.603 6.87059 131.845 7.04639L132.207 7.32564L132.337 7.4291C132.479 7.55317 132.633 7.6876 132.786 7.84279C131.987 7.23256 131.122 6.80862 130.815 6.66381C130.673 6.57059 130.52 6.48788 130.377 6.40517C130.006 6.20863 129.633 6.01222 129.238 5.84679V5.85703C129.633 6.03283 129.982 6.23974 130.345 6.4569C130.705 6.66381 131.057 6.90158 131.396 7.13947C131.56 7.2533 131.735 7.38774 131.899 7.52218L132.13 7.70835C132.207 7.77032 132.294 7.83242 132.36 7.90489C132.447 7.97723 132.535 8.0497 132.622 8.12204C130.772 6.73615 129.173 6.03283 127.815 5.70185C127.256 5.5468 126.687 5.41236 126.095 5.371C125.8 5.34002 125.515 5.35026 125.208 5.34001C125.066 5.35026 124.913 5.35026 124.77 5.371C124.693 5.38137 124.628 5.38137 124.562 5.39161L124.354 5.41236C123.774 5.47446 123.204 5.59852 122.656 5.78469C122.656 5.78469 122.656 5.78469 122.646 5.78469C122.646 5.79506 122.635 5.80531 122.635 5.81568C122.646 5.81568 122.656 5.80531 122.667 5.80531C123.226 5.63988 123.795 5.51581 124.365 5.45371L124.573 5.43297C124.65 5.4226 124.715 5.4226 124.781 5.41236C124.923 5.40199 125.077 5.40198 125.219 5.39161C125.515 5.40198 125.8 5.38137 126.095 5.4226C126.238 5.43297 126.391 5.44334 126.533 5.46408L126.96 5.53643C127.103 5.5468 127.245 5.58815 127.377 5.61914C126.982 5.5468 126.621 5.50544 126.27 5.49507C126.216 5.49507 126.161 5.4847 126.106 5.4847C125.876 5.46408 125.624 5.47446 125.394 5.4847L125.033 5.50544L124.672 5.53643C124.201 5.59853 123.73 5.68124 123.27 5.82605C123.04 5.88802 122.821 5.97086 122.613 6.0432C122.613 6.05357 122.624 6.05357 122.624 6.05357C122.635 6.06395 122.635 6.07419 122.635 6.08456C122.854 6.01222 123.084 5.95012 123.303 5.89839C123.423 5.86728 123.544 5.83629 123.675 5.80531C123.544 5.85703 123.401 5.89839 123.259 5.96049C123.084 6.03283 122.886 6.11567 122.711 6.20863C122.722 6.219 122.722 6.219 122.733 6.219C122.744 6.22937 122.755 6.22937 122.755 6.23974C122.832 6.20863 122.897 6.18801 122.952 6.16727C122.952 6.16727 122.886 6.19839 122.766 6.26048C122.799 6.29147 122.843 6.32246 122.886 6.35344H122.897C122.908 6.35344 122.919 6.36381 122.93 6.36381C122.952 6.37418 122.963 6.38456 122.985 6.39493C123.018 6.41554 123.062 6.42591 123.095 6.44653C123.127 6.46727 123.182 6.47764 123.215 6.49825C123.27 6.47764 123.325 6.4569 123.379 6.44653C123.434 6.42591 123.489 6.41554 123.544 6.39493C123.456 6.42591 123.368 6.47764 123.259 6.51899C123.281 6.51899 123.303 6.53961 123.325 6.53961C123.62 6.40517 123.927 6.31208 124.233 6.22937C124.584 6.1569 124.945 6.11567 125.296 6.09493C125.318 6.08456 125.351 6.09493 125.372 6.08456C126.194 6.05357 126.785 6.17764 127.015 6.23974C126.774 6.17764 126.522 6.14666 126.27 6.13629C125.975 6.11567 125.69 6.13629 125.405 6.16727C124.836 6.219 124.277 6.31208 123.719 6.46727V6.47764C124.004 6.41554 124.277 6.36381 124.562 6.33283C124.847 6.30171 125.131 6.27073 125.416 6.25011C125.712 6.23974 125.986 6.23974 126.27 6.23974C125.789 6.29147 125.46 6.43615 125.46 6.43615L126.457 6.41554C127.015 6.44652 127.738 6.53961 128.417 6.82923C128.45 6.84998 128.472 6.86022 128.505 6.87059C128.472 6.86022 128.45 6.84998 128.417 6.83961C128.187 6.76714 127.924 6.71554 127.683 6.67418C127.442 6.63269 127.18 6.61208 126.928 6.61208V6.62232C127.168 6.63269 127.42 6.67418 127.661 6.72578C127.902 6.77751 128.143 6.83961 128.373 6.92232C128.603 7.00503 128.833 7.09811 129.052 7.20157C129.096 7.22218 129.151 7.23256 129.195 7.26367C128.822 7.13947 128.439 7.04639 128.034 7.03601C128.034 7.03601 128.647 7.16021 129.446 7.51181C129.479 7.53255 131.439 8.58746 131.922 9.54929C131.866 9.48719 131.801 9.42509 131.746 9.37349C131.407 9.04251 131.046 8.74265 130.651 8.45302C130.267 8.1634 129.863 7.90489 129.457 7.65662V7.66699C129.863 7.9255 130.256 8.19438 130.629 8.49438C130.99 8.784 131.331 9.0735 131.659 9.3941L131.933 9.72509C130.563 8.46339 129.03 7.76008 129.03 7.76008C128.329 7.38774 127.42 7.11886 126.303 7.17045C126.303 7.17045 127.924 7.22218 129.085 7.89452C128.067 7.41872 126.917 7.1912 125.745 7.28428C125.46 7.26367 125.142 7.23256 124.989 7.26367L125.58 7.30503C125.548 7.30503 125.515 7.3154 125.493 7.3154C125.208 7.30503 124.847 7.32564 124.573 7.40848L125.066 7.38774C124.792 7.43946 124.518 7.51181 124.233 7.60489C124.233 7.60489 125.318 7.44984 126.61 7.61526C126.555 7.61526 126.511 7.60489 126.446 7.60489C126.062 7.60489 125.701 7.64625 125.329 7.72909V7.73933C126.062 7.58415 126.818 7.63588 127.541 7.79106C127.639 7.82205 127.727 7.84279 127.836 7.86353C128.264 7.9876 128.702 8.19438 129.085 8.43228C130.081 9.0735 130.914 9.95274 131.516 10.7283C131.428 10.6248 131.352 10.5215 131.242 10.4077C129.687 8.61845 127.782 8.1634 127.059 8.05994C128.494 8.30821 130.06 9.67336 131.253 10.9765C131.154 10.8835 131.068 10.7904 130.958 10.6663C129.961 9.62163 128.724 8.93905 128.34 8.74265C128.494 8.82536 128.636 8.92882 128.767 9.05289C128.745 9.04251 128.724 9.02177 128.702 9.01153C128.472 8.88733 128.209 8.784 127.957 8.70116C127.577 8.58655 127.179 8.51732 126.78 8.45548C127.175 8.52303 127.566 8.613 127.946 8.74265C128.198 8.82536 128.45 8.92881 128.669 9.06325C128.745 9.10448 128.811 9.15621 128.877 9.20794C128.844 9.18732 128.636 9.08387 127.508 8.88733C126.27 8.68055 125.416 8.68055 125.011 8.75289C125.011 8.75289 126.96 8.7219 128.067 9.11485C127.815 9.06326 127.004 8.91831 126.665 8.88733C126.665 8.88733 127.103 8.94943 127.464 9.14597H127.442C127.136 9.08387 126.84 9.03214 126.522 8.99079C126.172 8.94943 125.832 8.90807 125.482 8.91831C125.832 8.92881 126.172 8.99078 126.511 9.04251C126.533 9.04251 126.555 9.05289 126.577 9.05289C125.975 9.00116 125.471 9.00116 125.077 9.03214C125.088 9.05288 125.077 9.0735 125.088 9.09424C125.372 9.10448 125.657 9.14597 125.953 9.20794C125.821 9.20794 125.679 9.20794 125.537 9.21844C125.394 9.22868 125.241 9.24942 125.099 9.28041C125.241 9.25966 125.394 9.24942 125.526 9.24942C125.668 9.23905 125.81 9.25967 125.953 9.25967C126.073 9.27004 126.205 9.29065 126.336 9.31139C126.698 9.40448 127.059 9.53892 127.409 9.6941C127.245 9.65275 127.048 9.62163 126.884 9.59065C126.719 9.55966 126.555 9.53892 126.391 9.5183C126.227 9.49756 126.051 9.49756 125.898 9.5183C126.051 9.50793 126.238 9.5183 126.391 9.54929C126.555 9.58027 126.719 9.60102 126.884 9.64237C126.949 9.65275 127.037 9.67336 127.103 9.6941C126.774 9.64237 126.457 9.62163 126.128 9.632C125.876 9.64237 125.624 9.67336 125.394 9.72509C125.405 9.75607 125.427 9.78719 125.438 9.81817C125.613 9.8078 125.81 9.8078 125.986 9.81817C125.767 9.8078 125.58 9.82854 125.46 9.85953C125.471 9.8699 125.471 9.88027 125.482 9.88027L126.128 9.81817C126.347 9.83879 126.599 9.85953 126.818 9.91125C126.928 9.932 127.037 9.95274 127.157 9.98372C127.114 9.97335 127.081 9.98373 127.048 9.97336C126.117 9.82854 125.537 9.97336 125.537 9.97336L126.194 10.0043C126.172 10.0147 126.139 10.0147 126.117 10.025C125.975 10.0664 125.537 10.1595 125.723 10.1388C125.81 10.1284 125.964 10.1492 126.128 10.1801C125.942 10.2319 125.832 10.294 125.832 10.294C125.832 10.294 128.811 10.6559 130.049 14.7825C131.286 18.9196 128.691 22.8599 126.588 24.4424C124.485 26.0248 121.331 27.8035 118.353 25.8799C115.288 23.9011 117.893 17.5543 119.02 16.5718L121.2 14.3584L121.233 14.1826L121.156 14.2034L121.244 14.1413L121.255 14.0689C121.266 14.0276 121.266 13.9965 121.277 13.9655C121.079 14.0689 120.893 14.1826 120.729 14.3068H120.718C121.014 13.9965 121.233 13.8001 121.32 13.7173C121.331 13.6656 121.331 13.6139 121.342 13.5622C121.298 13.5828 121.145 13.6241 121.145 13.6241L121.353 13.4794C121.364 13.407 121.375 13.3346 121.375 13.2622C121.287 13.3243 121.2 13.3966 121.079 13.4794C120.696 13.7897 120.904 13.4277 121.375 13.1381C121.375 13.1381 121.408 13.1381 121.441 12.9727C121.287 13.0139 121.09 13.107 121.09 13.107C121.244 13.0139 121.364 12.9623 121.441 12.9519C121.452 12.8898 121.474 12.7967 121.485 12.683H121.408L121.485 12.6623C121.496 12.6107 121.496 12.5486 121.507 12.4761H121.309C121.309 12.4761 121.496 12.4555 121.539 12.4555C121.55 12.3727 121.561 12.29 121.561 12.1866C121.561 12.1659 121.561 12.1453 121.561 12.1245L121.342 12.1349C121.43 12.1142 121.507 12.1142 121.561 12.1039C121.561 12.0005 121.561 11.897 121.55 11.8039C121.55 11.8039 121.55 11.8039 121.539 11.8039C121.397 11.7108 120.641 11.9178 120.641 11.9178C120.915 11.7833 121.441 11.7005 121.517 11.6901C121.496 11.6074 121.474 11.5247 121.452 11.4523L121.211 11.5143L121.419 11.3591C121.309 11.1006 121.145 10.9042 121.036 10.7698C121.003 10.7904 120.959 10.8214 120.893 10.8525L121.025 10.7593C120.937 10.6663 120.882 10.6248 120.882 10.6248L120.357 10.8835C120.357 10.8835 120.696 10.6352 120.795 10.5628C120.806 10.5526 120.817 10.5526 120.828 10.5421C120.674 10.3043 120.521 10.0974 120.422 9.96298L120.236 10.0457C120.236 10.0457 120.335 9.95274 120.411 9.94237C120.389 9.91125 120.379 9.89051 120.357 9.8699C120.214 9.83879 119.459 9.94237 119.459 9.94237L120.17 9.61152C120.058 9.52816 119.995 9.39903 119.984 9.24942C119.984 9.21844 119.984 9.17695 119.984 9.14597C119.831 9.15621 119.645 9.18732 119.448 9.27004C119.448 9.27004 119.776 9.10448 119.995 9.05289C120.006 8.99079 120.017 8.91831 120.039 8.85634C119.984 8.80462 119.93 8.75289 119.875 8.70116C119.765 8.73227 119.535 8.73228 119.459 8.7219C119.546 8.7219 119.721 8.6598 119.82 8.62882C119.776 8.57709 119.732 8.51512 119.7 8.46339C119.546 8.54611 119.053 8.61845 119.053 8.61845C119.251 8.58746 119.645 8.37018 119.645 8.37018C119.634 8.33919 119.612 8.30821 119.601 8.28747C119.546 8.29784 119.492 8.30821 119.415 8.32895C119.152 8.38055 119.097 8.38055 119.097 8.38055C119.163 8.35994 119.371 8.13241 119.481 8.01859C119.448 7.9876 119.415 7.95649 119.371 7.90489C119.283 7.9255 119.163 7.96686 119.064 8.03933C119.064 8.03933 119.229 7.91526 119.338 7.87377C119.316 7.85316 119.305 7.83242 119.283 7.81181L118.966 7.95649L119.218 7.73933C119.174 7.69798 119.141 7.66699 119.108 7.63588L118.966 7.71872L119.097 7.62564C119.075 7.60489 119.064 7.58415 119.042 7.57391C119.01 7.58415 118.955 7.59465 118.856 7.61526C118.714 7.63588 118.637 7.67736 118.604 7.70835C118.648 7.66699 118.703 7.61526 118.747 7.59465C118.823 7.57391 118.626 7.52218 118.506 7.64625C118.637 7.41872 118.802 7.43946 118.725 7.43946C118.67 7.42909 118.506 7.53255 118.385 7.60489L118.473 7.51181C118.55 7.43947 118.626 7.37737 118.692 7.32564L118.539 7.09812C118.462 7.11886 118.374 7.13947 118.287 7.16022C118.352 7.08774 118.418 7.03602 118.484 6.99479C118.462 6.98442 118.451 6.96367 118.429 6.94306C118.32 6.98442 118.21 7.04639 118.122 7.09812C118.188 7.00503 118.276 6.93269 118.363 6.88096C118.243 6.76713 118.112 6.68442 117.958 6.59134C117.86 6.61208 117.761 6.65344 117.652 6.70516C117.717 6.65344 117.816 6.61208 117.893 6.57059C117.838 6.53961 117.783 6.50862 117.717 6.47764C117.706 6.48788 117.695 6.48788 117.685 6.48788C117.597 6.519 117.509 6.5811 117.443 6.62232C117.52 6.54998 117.597 6.49825 117.685 6.44653C117.652 6.43615 117.619 6.41554 117.586 6.40517C117.52 6.43616 117.454 6.47764 117.411 6.51899C117.487 6.44652 117.542 6.40517 117.542 6.40517C117.542 6.40517 117.542 6.40517 117.323 6.51899C117.345 6.49825 117.367 6.47764 117.389 6.44653C117.411 6.42591 117.454 6.38455 117.487 6.36381C117.454 6.35344 117.433 6.33283 117.4 6.33283C117.356 6.35344 117.312 6.37418 117.279 6.39493C117.312 6.37418 117.345 6.3432 117.378 6.32245C117.345 6.30171 117.301 6.29147 117.268 6.27073C117.093 6.36381 116.841 6.49825 116.819 6.49825C116.83 6.48788 116.841 6.47764 116.863 6.4569C116.951 6.38456 117.071 6.31208 117.181 6.25011C117.115 6.219 117.06 6.19839 116.984 6.17764C116.907 6.14666 116.83 6.1053 116.775 6.06395C116.71 6.1053 116.633 6.13629 116.567 6.17764L116.699 6.09493C116.699 6.09493 116.677 6.06395 116.644 6.02246C116.611 6.03283 116.578 6.05358 116.556 6.07419H116.545C116.567 6.05358 116.6 6.03283 116.633 6.01222C116.611 5.99148 116.578 5.97086 116.545 5.96049C116.447 5.92951 116.316 5.90876 116.228 5.91914C116.042 6.03283 115.888 6.17764 115.888 6.17764H115.877L116.151 5.90876C116.151 5.90876 116.151 5.90876 116.162 5.89839C116.162 5.89839 115.998 5.89839 115.768 5.87778L115.45 6.09493L115.604 5.86728C115.527 5.85704 115.439 5.85703 115.363 5.84679L115.286 5.90876L115.341 5.84679C115.199 5.82605 115.056 5.81568 114.958 5.78469C114.947 5.78469 114.947 5.78469 114.936 5.78469C114.859 5.86728 114.629 6.07419 114.629 6.07419C114.651 6.01222 114.837 5.84679 114.914 5.78469C114.837 5.76395 114.782 5.75358 114.75 5.74334C114.717 5.73284 114.695 5.72259 114.662 5.72259L114.509 5.80531L114.618 5.71222C114.487 5.66062 114.355 5.59852 114.355 5.59852L113.906 5.82605C113.84 5.86728 113.797 5.88802 113.797 5.88802C112.756 6.47764 111.541 7.41872 110.281 8.90807C110.281 8.90807 110.248 8.93906 110.194 9.00116C110.194 9.00116 109.542 9.60504 108.714 10.7574C107.297 6.77763 103.748 4.56799 98.5578 4.56799C94.3981 4.56799 91.1665 6.51212 89.288 9.28054H89.0643L87.9685 5.69861C87.9127 5.52956 87.7449 5.40263 87.5436 5.40263H79.1236C78.8775 5.40263 78.6875 5.58232 78.6875 5.81477V30.0754V31.2378V34.5874C78.6875 34.8091 78.8775 34.9994 79.1236 34.9994H90.1377C90.3727 34.9994 90.5739 34.8197 90.5739 34.5874V31.2378V29.5047V17.8289C90.5739 15.948 91.9604 14.5321 94.2416 14.5321C96.4109 14.5321 97.5179 15.5782 97.5179 17.998V34.5767C97.5179 34.7986 97.7079 34.9888 97.9541 34.9888H108.968C109.203 34.9888 109.404 34.8091 109.404 34.5767V32.1827C111.46 34.385 114.027 35.8403 116.491 36.4292C121.813 37.7013 129.896 37.3909 136.784 29.7169C138.719 27.5642 139.988 25.2857 140.764 23.0424L143.923 34.6946C143.974 34.8716 144.14 34.9993 144.338 34.9993H157.302C157.5 34.9993 157.676 34.8716 157.718 34.6848L161.734 18.7793H161.901L165.7 34.6848C165.741 34.8716 165.917 34.9993 166.115 34.9993H178.965C179.163 34.9993 179.329 34.8716 179.38 34.6946L187.186 5.90163C187.259 5.64598 187.052 5.39045 186.771 5.39045Z" fill="white"/>
<path d="M132.779 8.45642C132.638 8.43243 132.497 8.41091 132.357 8.39185C132.497 8.4135 132.638 8.43464 132.779 8.45642Z" fill="white"/>
<path d="M126.17 9.61203L126.169 9.61234C126.174 9.61605 126.177 9.62099 126.182 9.62439C126.17 9.61203 126.17 9.61203 126.17 9.61203Z" fill="white"/>
</svg>
