<svg width="1214" height="1281" viewBox="0 0 1214 1281" fill="none" xmlns="http://www.w3.org/2000/svg">
<path d="M1018.8 134.23C1024.25 139.263 1100.63 211.169 1152.27 313.634C1224.28 438.75 1275.93 760.528 1047.17 1026.94C818.405 1293.71 550.002 1304.49 373.249 1260.27C196.495 1216.05 3.73988 1031.61 0.830358 747.585C-0.260711 465.715 164.127 306.803 164.127 306.803C165.946 304.646 167.037 303.568 167.037 303.568C208.861 251.796 249.23 219.078 283.781 198.585C283.781 198.585 285.236 197.866 287.418 196.428L302.329 188.519C302.329 188.519 306.693 190.676 311.058 192.473L307.421 195.709L312.512 192.833C313.604 192.833 314.331 193.192 315.422 193.552C316.513 193.911 318.331 194.271 320.877 194.99C318.331 197.147 312.149 202.9 311.421 205.057C311.421 205.057 319.059 197.866 321.605 194.99H322.332C325.605 196.069 330.333 196.428 335.061 197.147L333.243 199.304L335.789 197.147C338.334 197.507 341.244 197.507 343.79 197.866L338.698 205.776L349.245 198.226C356.883 198.945 362.338 198.945 362.338 198.945L361.974 199.304L352.882 208.652H353.246C353.246 208.652 358.337 203.619 364.52 199.664C367.43 199.304 371.794 200.023 375.067 201.102C376.158 201.462 377.249 202.181 377.977 202.9C376.886 203.619 375.794 204.338 375.067 205.057H375.431C376.158 204.338 377.249 203.619 378.34 203.259C379.431 204.697 380.159 205.776 380.159 205.776L375.794 208.652C377.977 207.214 380.522 206.135 382.705 204.697C384.523 206.135 387.069 207.574 389.615 208.652C392.161 209.371 393.979 210.09 396.161 211.169C392.524 213.326 388.524 215.843 385.614 218.359L384.159 219.798C384.851 219.798 392.448 215.572 398.195 212.375L399.071 211.888C400.162 212.607 401.616 212.966 402.707 213.686C401.616 214.405 400.525 215.483 399.434 216.202C400.525 215.483 401.98 214.764 403.435 214.045C404.526 214.045 405.253 214.764 406.344 215.124C405.253 215.843 403.799 217.281 403.071 218C402.344 219.078 401.616 219.798 400.889 220.517L408.163 216.562C408.163 216.562 406.344 218 403.799 220.517C405.253 219.078 407.435 217.64 409.618 216.562C410.709 216.921 411.8 217.64 412.891 218C409.981 219.798 407.435 221.595 404.89 224.112C407.072 222.674 409.981 220.517 412.891 219.438C413.254 219.438 413.618 219.438 413.982 219.078C416.164 220.157 417.982 221.235 419.8 222.314L419.801 222.314C417.255 223.752 413.982 225.19 411.8 226.988C415.437 225.19 418.71 223.752 421.983 223.033C427.075 226.269 431.439 229.145 435.44 233.1C432.53 234.898 429.621 237.414 427.438 240.65C430.348 238.853 433.985 236.695 437.622 235.257C438.349 235.976 438.713 236.695 439.44 237.055C437.258 238.493 435.076 240.291 432.894 242.807C435.803 242.088 438.713 241.369 441.259 240.65L446.35 248.56C444.168 250.357 441.622 252.515 439.077 255.031L436.167 258.267C440.168 255.75 445.623 252.155 447.441 252.515C449.987 252.515 444.532 251.796 440.168 259.705C444.168 255.391 450.715 257.188 448.169 257.908C446.714 258.627 444.896 260.424 443.441 261.862C444.532 260.784 447.078 259.346 451.806 258.627C455.079 257.908 456.897 257.548 457.988 257.188C458.716 257.548 459.079 258.267 459.807 258.986L455.443 262.222L460.171 259.346L463.807 262.941L455.443 270.491L465.99 265.458C466.717 266.177 467.081 266.896 467.808 267.615C464.171 269.053 458.716 273.367 458.716 273.367C461.989 270.851 465.99 269.412 468.899 268.693C470.354 270.491 471.445 271.57 472.536 272.648C468.899 276.603 461.989 284.513 459.807 285.232C459.807 285.232 461.625 285.232 470.354 283.434C472.9 282.715 474.718 282.355 476.537 281.996C476.9 282.715 477.628 283.794 477.991 284.872C477.991 284.872 464.898 292.422 458.352 293.501C458.352 293.501 474.718 290.984 479.81 288.108C480.901 289.906 482.356 292.063 483.81 293.86C480.537 294.939 474.718 297.096 471.809 297.096C474.354 297.456 481.992 297.456 485.629 296.377L491.084 301.77C490.357 303.927 489.993 306.444 489.629 308.601C482.356 310.399 471.445 316.151 471.445 316.151C477.991 313.275 484.174 312.196 489.266 311.837V315.432C489.616 320.626 491.653 325.154 495.378 328.05L495.448 328.016L495.812 328.375C495.665 328.269 495.52 328.161 495.378 328.05L471.809 339.52C471.809 339.52 496.903 335.925 501.631 337.004C502.358 337.723 502.722 338.442 503.45 339.52C500.904 339.88 497.631 343.116 497.631 343.116L503.813 340.24C507.086 344.913 512.178 352.104 517.27 360.373C516.906 360.733 516.542 360.733 516.179 361.092C512.906 363.609 501.631 372.238 501.631 372.238L519.088 363.249C519.088 363.249 520.907 364.687 523.816 367.923L519.452 371.159C521.634 370.08 523.089 369.002 524.18 368.283C527.817 372.957 533.272 379.788 536.909 388.776L529.999 394.169L538 392.012C538.727 394.527 539.454 397.401 540.181 400.275L540.182 400.281C537.636 400.64 520.179 403.517 511.087 408.19C511.087 408.19 536.182 401 540.91 404.236H541.273C541.637 407.471 541.637 411.067 541.637 414.662C539.819 415.021 537.273 415.021 534.363 415.74L541.637 415.381V417.538C541.637 421.133 541.273 424.01 540.91 426.886C539.455 426.886 533.272 427.605 533.272 427.605H539.819C539.455 430.122 539.455 432.279 539.091 434.076L536.545 434.795H539.091C538.727 438.75 538 441.986 537.636 444.143C535.091 444.503 531.09 446.3 525.998 449.536C525.998 449.536 532.545 446.3 537.636 444.862C536.545 450.615 535.454 450.615 535.454 450.615C519.816 460.682 512.905 473.265 525.635 462.479C529.635 459.603 532.545 457.086 535.454 454.929C535.454 457.446 535.091 459.962 534.727 462.479L527.817 467.513C527.817 467.513 532.908 466.074 534.363 465.355C534 467.153 534 468.951 533.636 470.748C530.726 473.624 523.452 480.456 513.633 491.241H513.997C519.452 486.927 525.635 482.972 532.181 479.377C531.817 480.456 531.817 481.534 531.454 482.972L531.09 485.489L528.18 487.646L530.726 486.927L529.635 493.039L457.261 569.978C419.801 604.133 333.315 824.763 435.076 893.554C534 960.426 638.742 898.587 708.571 843.579C778.399 788.571 864.593 651.591 823.497 507.78C782.4 364.328 683.476 351.744 683.476 351.744C683.476 351.744 687.113 349.587 693.296 347.79C687.84 346.711 682.749 345.992 679.839 346.351C673.656 347.071 688.204 343.835 692.932 342.397C693.659 342.037 694.75 342.037 695.478 341.678L673.656 340.599C673.656 340.599 692.932 335.566 723.846 340.599C724.937 340.959 726.028 340.599 727.482 340.959C723.483 339.88 719.847 339.161 716.211 338.443L716.208 338.442C708.934 336.644 700.569 335.925 693.296 335.206L671.838 337.363C671.474 337.363 671.474 337.004 671.111 336.644C675.111 335.566 681.294 334.847 688.568 335.206C682.749 334.847 676.202 334.847 670.383 335.206C670.019 334.128 669.292 333.049 668.928 331.97C676.566 330.173 684.931 329.094 693.296 328.735C704.206 328.375 714.753 329.094 725.664 330.892C723.482 330.173 720.572 329.454 718.39 329.094C712.935 327.656 707.479 326.937 702.024 325.858C696.932 324.78 690.75 324.42 685.658 324.78C690.75 324.061 696.569 324.061 702.024 324.78C707.479 325.499 712.935 326.218 718.39 327.297C723.845 328.375 730.392 329.454 735.847 330.892C724.209 325.499 712.207 320.825 700.206 317.589C695.841 316.87 691.477 316.151 687.477 315.792C682.749 315.792 678.021 315.073 673.293 315.432C668.928 315.432 663.837 315.792 659.109 316.511C663.837 315.432 668.928 314.713 673.656 314.353C678.384 313.994 683.112 313.994 687.477 313.994C677.657 311.837 668.201 310.399 658.745 310.039C658.381 309.32 658.745 308.601 658.381 307.882C671.374 306.812 687.948 306.803 707.748 308.56C707.174 308.466 706.599 308.241 706.025 308.241C694.75 306.444 683.476 304.287 671.838 303.927C683.199 303.576 694.213 304.938 705.557 306.341L706.388 306.444C716.935 307.882 726.755 309.68 736.938 311.837H737.666C725.664 305.006 711.116 302.849 711.116 302.849C722.391 303.927 749.304 308.961 757.669 310.758C720.936 297.096 656.199 298.175 656.199 298.175C669.656 295.658 698.024 295.658 739.121 302.849C776.581 309.68 783.491 313.275 784.582 313.994L784.581 313.994C782.399 312.196 780.217 310.399 777.672 308.961C770.398 304.287 762.033 300.691 753.668 297.815C741.216 293.363 728.378 290.246 715.436 287.909C710.594 287.12 705.75 286.369 700.933 285.591C705.772 286.275 710.611 287.037 715.436 287.909C728.505 290.038 741.559 292.442 754.032 296.377C762.397 299.253 771.125 302.849 778.763 307.163C779.49 307.522 780.217 308.241 780.945 308.601C776.581 304.287 771.852 300.691 766.761 297.815C779.49 304.646 820.587 328.375 853.683 364.687C857.32 369.002 860.229 372.238 863.502 375.473C823.86 330.173 771.853 282.715 724.209 274.086C748.213 277.682 811.495 293.501 863.139 355.699C866.776 359.654 869.321 363.249 872.231 366.845C852.228 339.88 824.588 309.32 791.492 287.029C778.763 278.76 764.215 271.57 750.031 267.255C746.394 266.536 743.485 265.817 740.212 264.739C716.208 259.346 691.113 257.548 666.746 262.941V262.581C679.112 259.705 691.113 258.267 703.843 258.267C706.025 258.267 707.48 258.627 709.298 258.627C666.383 252.874 630.377 258.267 630.377 258.267C639.833 255.031 648.925 252.515 658.018 250.717L641.652 251.436C650.744 248.56 662.746 247.841 672.202 248.2C672.929 248.2 674.02 247.841 675.111 247.841L655.472 246.403C660.564 245.324 671.111 246.403 680.566 247.122C719.481 243.886 757.669 251.796 791.492 268.334C752.941 244.964 699.115 243.167 699.115 243.167C736.211 241.369 766.397 250.717 789.673 263.66C789.673 263.66 840.59 288.108 886.051 331.97L876.959 320.465C866.048 309.32 854.774 299.253 842.772 289.186C830.407 278.76 817.314 269.412 803.857 260.424V260.065C817.314 268.693 830.77 277.682 843.499 287.748C856.592 297.815 868.594 308.241 879.869 319.746C881.687 321.544 883.869 323.701 885.687 325.858C869.685 292.422 804.585 255.75 803.494 255.031C776.944 242.807 756.578 238.493 756.578 238.493C770.034 238.852 782.763 242.088 795.129 246.403C793.674 245.324 791.855 244.964 790.401 244.245C783.127 240.65 775.49 237.414 767.852 234.538C760.214 231.662 752.213 229.505 744.212 227.707C736.211 225.909 727.846 224.471 719.845 224.112V223.752C728.21 223.752 736.938 224.471 744.94 225.909C752.941 227.348 761.669 229.145 769.307 231.662C770.398 232.021 771.125 232.381 772.216 232.741C771.125 232.381 770.398 232.021 769.307 231.302C746.758 221.236 722.754 218 704.206 216.921L671.111 217.64C671.111 217.64 682.021 212.607 698.024 210.809C688.568 210.809 679.475 210.809 669.656 211.169C660.2 211.888 650.745 212.966 641.289 214.045L641.288 214.045C631.832 215.124 622.74 216.921 613.284 219.078V218.719C631.832 213.326 650.38 210.09 669.292 208.293C678.748 207.214 688.204 206.495 698.024 207.214C706.388 207.574 714.753 208.652 722.755 210.809C715.117 208.652 695.478 204.338 668.201 205.416C667.474 205.776 666.383 205.416 665.655 205.776C654.017 206.495 642.015 207.933 630.377 210.45C620.194 213.326 610.011 216.562 600.191 221.236C599.464 221.236 598.736 220.517 598.009 220.517C601.48 219.144 604.288 217.444 607.066 216.354C605.381 216.976 603.695 217.333 602.009 218C600.191 218.359 598.373 219.078 596.554 219.798C595.463 219.078 593.645 218.719 592.554 218C591.462 217.281 590.008 216.921 588.917 216.202C588.189 215.843 587.826 215.483 587.098 215.124C586.735 215.124 586.371 214.764 586.007 214.764H585.643C584.189 213.686 582.734 212.607 581.643 211.528C585.643 209.371 587.826 208.293 587.826 208.293C586.007 209.012 583.825 209.731 581.279 210.809C581.279 210.45 580.915 210.45 580.552 210.09C580.188 210.09 580.188 210.09 579.824 209.731C585.643 206.495 592.19 203.619 598.009 201.102C602.737 198.945 607.465 197.507 611.829 195.709C607.465 196.788 603.464 197.866 599.464 198.945C592.19 200.742 584.552 202.9 577.279 205.416C577.279 205.057 577.279 204.697 576.915 204.338C576.915 204.338 576.551 204.338 576.551 203.978C583.461 201.462 590.735 198.585 598.373 196.428C613.648 191.395 629.286 188.519 644.925 186.361L656.927 185.283L668.928 184.564C676.566 184.204 684.931 183.845 692.568 184.564C694.387 184.564 696.205 184.923 698.024 184.923C709.662 185.283 721.663 186.721 734.756 189.238C730.392 188.159 725.664 186.721 720.936 186.361L706.752 183.845C702.338 183.173 697.607 182.815 693.151 182.478L692.205 182.407C682.385 180.968 672.929 181.688 663.109 181.328C658.381 181.688 653.29 181.688 648.562 182.047C646.38 182.407 644.198 182.407 641.652 182.766L634.742 183.485C615.83 185.642 596.918 189.957 578.37 195.709C578.006 195.709 577.642 196.069 577.279 196.069C577.279 195.709 577.642 195.35 577.642 194.99H578.006C596.19 188.519 615.102 184.204 634.378 182.047L641.288 181.328C643.47 180.968 645.652 180.968 648.198 180.609C652.926 179.89 658.018 179.89 662.746 179.53C672.929 179.89 682.385 179.53 692.205 180.609C711.844 182.047 730.756 186.721 749.304 192.114C794.401 203.619 847.5 228.067 908.964 276.243L900.235 268.693C898.053 266.177 895.143 264.019 892.598 261.862L884.96 255.391C879.505 250.717 873.686 246.043 868.23 242.088C856.956 233.819 845.318 225.55 833.316 218.359C821.314 210.809 809.676 203.619 796.583 197.507V197.147C809.676 202.9 822.042 209.731 834.407 216.562C839.135 219.438 844.227 222.314 848.955 225.55C859.138 230.583 887.87 245.324 914.419 266.536C909.327 261.143 904.236 256.469 899.508 252.155L895.143 248.56L883.142 238.853C875.14 232.741 867.139 226.269 858.774 220.876C876.959 230.224 894.052 241.01 910.418 253.593C925.693 264.739 939.877 277.322 953.334 290.625H954.425C952.97 288.827 951.515 287.389 949.697 285.591L940.605 276.603L936.24 272.289C934.786 270.491 933.331 269.412 931.876 267.974C928.239 264.379 925.33 261.862 922.42 258.986C919.147 255.75 915.874 252.874 912.964 250.357C907.145 244.605 899.871 239.572 893.689 234.179C880.596 224.112 866.412 214.405 852.228 205.776C837.68 197.507 822.769 189.597 806.767 183.845C823.496 187.08 839.499 193.911 854.774 201.462C857.319 202.54 859.865 203.978 862.41 205.416L862.411 205.416C858.411 201.821 854.41 198.945 850.773 196.428C849.682 196.069 848.955 195.35 847.864 194.99C836.589 188.159 825.315 182.047 813.313 177.014C800.948 171.261 789.31 166.947 776.217 164.79V164.43C782.036 164.43 788.219 165.149 793.674 166.587C779.854 161.913 765.306 157.24 751.122 153.285C739.484 150.049 727.846 147.173 715.481 144.297C705.297 142.499 695.478 140.342 684.931 139.982C695.114 139.982 705.297 141.42 715.481 143.578C727.846 146.454 739.848 149.33 751.85 152.206C769.238 156.416 785.933 161.31 802.274 166.555C802.095 166.453 801.903 166.34 801.675 166.228L801.672 166.226C797.673 164.429 793.673 162.632 790.037 160.835L778.035 156.161L772.216 153.644L766.397 151.487C762.033 150.409 758.396 148.97 754.396 147.532C746.394 145.016 738.393 142.499 730.028 140.701C713.662 136.387 696.569 133.511 679.839 131.713C663.109 129.915 645.652 128.837 628.923 129.556V129.196C646.016 128.477 663.109 128.477 680.203 129.915C696.932 131.354 714.026 133.87 730.756 137.825C739.121 139.263 747.849 141.42 755.85 143.937C760.214 145.016 764.214 146.454 768.215 147.892L768.216 147.892L774.035 150.049L779.854 152.566L791.492 157.599C734.029 127.399 671.474 121.287 631.105 120.927C630.014 120.927 598.736 122.365 600.918 121.646C603.101 120.927 611.829 116.613 611.829 116.613C640.924 110.501 694.387 102.951 756.941 111.579L751.122 110.501C748.94 110.141 746.394 110.141 744.212 109.782C739.484 109.063 734.393 108.344 729.665 107.984L715.117 106.906L707.843 106.546L700.569 106.187C696.205 106.187 691.114 105.467 686.386 105.467C676.93 105.108 667.474 105.108 657.654 105.467C638.742 105.827 619.467 107.625 600.555 110.141C581.643 112.658 562.731 116.613 544.547 121.646V121.287C563.095 115.894 581.643 111.579 600.555 108.703C619.467 105.467 638.379 103.31 657.654 102.591C667.11 101.872 676.566 101.872 686.386 101.872C691.114 101.872 696.205 102.591 700.933 102.591L708.207 102.951L715.117 103.67C734.393 105.467 760.942 111.22 779.49 116.253L772.216 115.175C802.039 120.927 834.044 129.556 866.412 144.656C906.418 162.632 940.605 185.283 968.972 208.652C961.335 201.821 952.97 194.99 944.969 188.519C926.421 173.059 906.418 159.756 886.415 146.813L870.776 137.466C865.321 133.87 860.229 131.354 854.774 128.477L846.773 124.522C844.227 123.084 841.317 122.006 838.772 120.927L822.405 113.377V113.018L839.499 119.489C842.408 120.927 844.954 122.006 847.864 123.084L855.865 126.68C861.32 129.196 866.776 131.713 872.231 134.589L888.233 143.937C908.964 156.521 928.603 170.902 947.151 186.361C966.063 201.821 983.884 218 1000.61 235.257C1004.98 239.931 1009.71 244.605 1014.07 249.279C1003.16 235.976 992.612 222.674 980.974 209.731C973.337 201.462 965.336 193.192 957.334 185.642L947.515 177.014C946.06 175.935 944.605 174.497 943.15 173.418C943.15 173.418 984.975 186.361 1023.16 233.819C1019.89 228.786 979.156 166.228 906.054 127.039C903.872 125.961 901.326 124.522 899.144 123.444C898.78 123.084 898.417 123.084 898.053 122.725C868.594 108.344 836.226 95.4007 800.584 83.5362C788.946 81.0195 776.944 78.5029 764.942 76.3457C746.758 72.7504 728.21 70.2337 710.025 68.7956C705.661 68.0765 700.569 68.0765 696.205 67.717C691.841 67.3575 686.749 66.9979 682.385 66.9979H668.201L654.381 67.717C635.833 68.7956 617.648 72.0313 600.191 78.1433C617.284 71.6718 635.469 68.4361 654.017 66.6384L667.837 65.9194H682.021C686.749 65.9194 691.841 66.2789 696.205 66.2789C700.569 66.6384 705.661 66.6384 710.025 66.9979C728.21 68.0765 746.758 70.5932 764.579 73.4695C752.941 70.5932 742.03 68.0765 730.392 66.2789C716.935 64.1217 703.115 62.3241 689.659 61.605H668.201C652.199 61.9645 636.196 61.9646 620.558 63.4027C588.917 66.2789 558.003 73.1099 529.272 86.772L528.908 86.4125C544.652 78.6303 561.453 72.5883 578.271 68.2865C576 68.804 573.73 68.8734 571.46 69.5147L558.003 71.6718C554.002 72.3909 549.275 73.4695 544.91 74.548C527.453 79.2219 509.996 85.6934 493.266 92.1649C476.173 98.996 459.807 106.187 444.532 116.613L444.168 116.253C459.443 105.467 475.809 97.5579 492.539 90.3673C503.086 85.6934 513.269 81.7386 524.18 78.1433C476.9 89.6482 436.894 104.029 413.982 113.737C413.618 112.658 412.891 111.579 412.163 110.86C424.529 102.951 441.622 93.6031 462.353 83.1767C444.168 90.3673 426.347 97.9174 409.254 106.546L408.527 105.827C431.803 93.6031 456.17 83.1767 480.901 73.4695C485.992 71.6718 491.811 69.5146 497.267 67.717C514.36 60.886 533.272 53.6954 551.82 48.662C635.469 25.2927 706.025 32.1237 733.665 34.2809C745.667 35.719 730.756 27.0903 694.387 24.2141C681.658 23.495 659.472 23.495 625.649 27.8094C619.467 28.8879 612.556 29.607 606.01 31.0451C583.098 35.719 559.821 41.831 537.636 50.8192L537.273 50.4596C559.094 40.7524 581.643 33.5618 604.919 28.5284C598.736 29.607 592.19 29.9665 585.643 31.4046C560.549 36.0785 535.091 43.2691 512.178 54.4145L511.814 54.0549C521.998 49.0215 532.545 43.9881 543.455 40.3928C538.728 41.4714 533.272 42.55 528.544 43.9881C500.904 51.5382 473.991 61.2455 449.26 75.2671L448.896 74.9076C471.581 60.6372 496.214 50.5411 521.568 42.7986C511.028 45.9565 500.385 49.1484 488.902 52.6168C487.084 53.3359 484.901 54.0549 483.083 54.774C454.715 65.9194 427.438 79.941 401.98 96.4793L401.616 96.1197C419.074 84.2553 437.258 73.829 456.17 64.1217C449.26 67.3575 441.986 69.8742 435.076 72.7504C435.076 72.7504 495.812 32.4832 589.28 12.3496C579.824 14.1473 570.005 15.9449 560.549 17.7426C536.909 23.1355 513.269 29.607 490.72 38.2357C467.808 46.8644 445.623 56.5716 425.256 69.5147L424.893 69.1551C445.259 55.8526 467.444 45.7858 489.993 36.7976C512.542 28.1689 535.818 20.9783 559.458 15.2259C571.823 12.7092 583.098 9.83294 595.463 8.03529C601.282 6.95671 607.465 5.87812 613.284 5.15907L631.468 3.36143C631.468 3.36143 634.742 2.64237 640.561 2.28284C644.561 2.28284 649.653 1.56378 655.472 1.56378L667.837 0.844727L698.751 1.92331C755.123 2.64237 816.95 14.1473 881.323 42.55C928.603 63.7622 969.336 91.8054 1004.61 122.725C1008.98 126.68 1014.43 130.275 1018.8 134.23Z" fill="#EA0429"/>
</svg>
