<?xml version="1.0" encoding="UTF-8"?>
<svg width="95px" height="30px" viewBox="0 0 95 30" version="1.1" xmlns="http://www.w3.org/2000/svg" xmlns:xlink="http://www.w3.org/1999/xlink">
    <title>LOGO</title>
    <g id="曼伦定制页面" stroke="none" stroke-width="1" fill="none" fill-rule="evenodd">
        <g id="01列表页-3" transform="translate(-53.000000, -10.000000)" fill="#FFFFFF">
            <g id="LOGO" transform="translate(53.000000, 10.000000)">
                <path d="M37.9948865,19.3760787 C36.2153943,19.3760787 35.597515,20.5353095 35.3912712,21.1770117 C35.3622948,21.3161861 35.3299094,21.4545271 35.2932628,21.5903679 C35.2932628,21.5912013 35.2932628,21.592868 35.2932628,21.592868 L35.2932628,21.592868 C34.3728357,25.0655602 31.0993541,27.6415361 27.2122544,27.6415361 C27.2122544,27.6415361 22.0612721,27.6415361 21.6223648,23.591312 C21.6223648,23.591312 21.2882838,20.1111194 24.0938818,20.0127806 C25.2052122,19.9736118 27.6281511,20.1302871 28.2818247,18.1718454 C28.2818247,18.1718454 26.965955,16.7417662 24.0751323,15.4208598 C24.0700188,15.4166929 24.0649054,15.4133594 24.0606441,15.4091925 C25.4515116,15.7967139 26.5534673,15.5825354 27.3119673,15.2650178 C28.4846595,14.7749907 29.0982776,13.9524452 29.123845,13.9174433 C28.8707276,13.7441003 28.5272719,13.7691017 28.3014264,13.9749464 C27.8122365,14.4191377 26.7367005,14.9766685 25.2955504,14.9383331 C26.4844353,14.4799744 26.7835741,13.6782633 26.8091415,13.629094 C26.8091415,13.629094 26.2602942,13.5082539 25.9995066,13.8016035 C25.9995066,13.8024369 25.9986543,13.8024369 25.9986543,13.8024369 C25.6654257,14.1991255 24.1535391,14.8366608 23.326007,14.2691294 C21.7859962,13.1715686 22.7353997,10.7839365 23.1751592,9.86471896 C23.1760115,9.86388558 23.1760115,9.86388558 23.1760115,9.8630522 C23.5143536,9.10301013 22.7541491,8.20129356 22.7541491,8.20129356 C22.6808558,8.29463206 21.4110074,9.95389056 21.2644209,12.1873475 C19.8224186,9.55720194 20.2297928,7.0920655 20.6542119,5.76615879 C20.8502288,5.15445827 20.5749529,4.49525512 19.9903113,4.19023824 C19.9451422,4.27024266 18.8857989,6.1836819 19.0170449,8.81882774 C19.0945994,10.3739138 19.6119135,12.3756913 21.2874316,14.3916362 C20.0226967,14.0599511 18.3991657,13.8699406 16.3844532,14.2282938 C16.3844532,14.2282938 16.5199605,16.3175761 19.1491433,16.9184427 C19.1491433,16.9184427 15.7009509,19.0735619 15.06347,23.5621437 C15.06347,23.5621437 15.0626177,23.5629771 15.0626177,23.5629771 C15.0617655,23.5721443 15.0609133,23.5813114 15.060061,23.5904786 C15.0481295,23.6746499 15.0370503,23.7588213 15.0276756,23.843826 C14.753252,25.6147573 13.2865345,27.5406972 10.5516731,27.6382026 C6.01942227,27.5156958 2.3794743,23.8929953 2.44935857,19.4819179 C2.51924285,15.0733406 6.33816273,11.5723135 10.9138782,11.5723135 L12.0115726,11.5723135 L12.0115726,10.5147549 C12.0115726,6.10617761 15.6455549,2.42680731 20.2212703,2.35930357 C20.2681439,2.35847019 20.3150175,2.36013695 20.3627433,2.36013695 C20.4096169,2.36013695 20.4564905,2.35847019 20.5042164,2.35930357 C24.1151879,2.41263986 27.1398134,4.71610067 28.2537005,7.85210757 C28.6090876,8.8529963 29.6709877,9.45219612 30.7490805,9.25385181 L31.0891271,9.19134835 C30.4678389,4.02106221 25.8938279,-0.00582732596 20.3627433,0 C20.3627433,0 20.3627433,0 20.3627433,0 C20.3584821,0 20.3542209,0 20.3508119,0 C14.7950121,0 10.206513,4.06689808 9.62528034,9.27385292 C4.22203283,9.83388392 0,14.2541286 0,19.6069248 C0,25.3372419 4.83905984,30 10.7877456,30 L27.2122544,30 C33.1600879,30 38,25.3372419 38,19.6069248 C38,19.5294205 37.9974433,19.4527496 37.9948865,19.3760787 Z" id="路径"></path>
                <path d="M88.6315981,24.2464 C88.7947831,24.3744 89.0023211,24.4384 89.2550487,24.4384 L94.2133643,24.4384 C94.6476876,24.4384 95,24.7712 95,25.1824 L95,26.808 L88.2935121,26.808 C87.4625235,26.808 86.8114569,26.5176 86.341986,25.9368 C86.0624793,25.5952 85.9227259,25.1472 85.9227259,24.592 L85.9227259,18.1128 L87.6290559,18.1128 C88.0633793,18.1128 88.4156917,18.4456 88.4156917,18.856 L88.4156917,19.4448 L94.2133643,19.4448 C94.6476876,19.4448 95,19.7776 95,20.188 L95,21.8136 L88.4156917,21.8136 L88.4156917,23.824 C88.4156917,23.9864 88.4876605,24.1272 88.6315981,24.2464 Z M92.8593466,17.3704 L74.3114806,17.3704 L74.3114806,22.6584 C74.3114806,23.7008 73.9641893,24.5968 73.2687698,25.348 C72.455355,26.2272 71.3582493,26.7136 69.9766157,26.808 L69.9766157,25.0512 C69.9766157,24.72 70.2109327,24.436 70.5465081,24.3368 C70.9096995,24.2296 71.1984116,24.0456 71.4126443,23.7856 C71.6837825,23.4616 71.8185148,23.064 71.8185148,22.5944 L71.8185148,10.3528 C71.8185148,9.6104 71.9139153,9.0296 72.1030426,8.6112 C72.6997142,7.3392 73.8286202,6.7032 75.4905973,6.7032 L82.765304,6.7032 L82.765304,5 L84.4858605,5 C84.9201838,5 85.2724962,5.3328 85.2724962,5.7432 L85.2724962,6.7032 L94.2133643,6.7032 C94.6476876,6.7032 95,7.036 95,7.4464 L95,9.072 L87.9955947,9.072 L87.9955947,10.8264 L92.5472029,10.8264 C93.3689862,10.8264 93.9790473,11.0488 94.3765494,11.4928 C94.7916252,11.9536 95,12.5296 95,13.2208 L95,15.1032 C95,15.8376 94.7288617,16.4352 94.1865852,16.896 C93.816699,17.212 93.3740072,17.3704 92.8593466,17.3704 Z M78.9040942,9.072 L75.9106943,9.072 C75.4136074,9.072 75.0119211,9.2304 74.7047984,9.5464 C74.4428655,9.8104 74.3114806,10.1008 74.3114806,10.4168 L74.3114806,10.8264 L78.9040942,10.8264 L78.9040942,9.072 Z M78.9040942,13.0544 L74.3114806,13.0544 L74.3114806,15.0776 L78.9040942,15.0776 L78.9040942,13.0544 Z M85.4884026,9.072 L81.4112864,9.072 L81.4112864,10.8264 L85.4884026,10.8264 L85.4884026,9.072 Z M85.4884026,13.0544 L81.4112864,13.0544 L81.4112864,15.0776 L85.4884026,15.0776 L85.4884026,13.0544 Z M92.4660288,13.6696 C92.4660288,13.2592 92.1722956,13.0544 91.5856662,13.0544 L87.9955947,13.0544 L87.9955947,15.0776 L91.7346249,15.0776 C92.2225064,15.0776 92.4660288,14.8648 92.4660288,14.4376 L92.4660288,13.6696 Z M47.2026748,15.5024 L45.2511487,22.5944 C45.1791799,22.8592 45.1423586,23.1072 45.1423586,23.3376 C45.1423586,23.816 45.3415281,24.1616 45.7390302,24.3744 C45.9733472,24.5024 46.2085011,24.5664 46.443655,24.5664 L47.2562329,24.5664 L61.9420523,24.5664 C62.6558824,24.5664 63.0985742,24.5368 63.2701277,24.4768 C63.7395986,24.3064 63.9747525,23.9568 63.9747525,23.4272 C63.9747525,23.2224 63.9521576,23.0304 63.9069679,22.8504 L62.5387239,17.4856 L64.5002921,17.4856 C64.8668309,17.4856 65.1848326,17.7248 65.2668435,18.0624 L66.3455387,22.492 C66.5078869,23.1584 66.589061,23.752 66.589061,24.272 C66.589061,25.1512 66.147206,25.8688 65.2618224,26.4232 C64.6475771,26.808 63.7077985,27 62.4433234,27 L46.3214754,27 C45.3005226,27 44.4385707,26.7648 43.733946,26.2952 C42.8845468,25.732 42.4602656,24.9424 42.4602656,23.9264 C42.4602656,23.5768 42.5280501,23.1536 42.6636193,22.6584 L44.5908768,15.5976 C44.7197512,15.1264 44.3440071,14.668 43.8293465,14.668 L42.7857989,14.668 C42.3514755,14.668 42,14.3352 42,13.9248 L42,12.3376 L66.168964,12.3376 C66.6032874,12.3376 66.9547629,12.6704 66.9547629,13.0808 L66.9547629,14.668 L48.3449702,14.668 C47.8077148,14.668 47.3382439,15.0112 47.2026748,15.5024 Z M42.4736551,6.9456 L42.4736551,5.3968 L65.7488671,5.3968 C66.1831904,5.3968 66.534666,5.7296 66.534666,6.1408 L66.534666,7.6896 L43.2602908,7.6896 C42.8259675,7.6896 42.4736551,7.356 42.4736551,6.9456 Z M78.3082595,18.856 L78.3082595,19.4448 L84.1059321,19.4448 C84.5410923,19.4448 84.8925679,19.7776 84.8925679,20.188 L84.8925679,21.8136 L78.3082595,21.8136 L78.3082595,23.7728 C78.3082595,23.908 78.3609808,24.0432 78.4672604,24.1776 C78.5961347,24.3424 78.801999,24.4384 79.0187422,24.4384 L84.1059321,24.4384 C84.5410923,24.4384 84.8925679,24.7712 84.8925679,25.1824 L84.8925679,26.808 L78.0647372,26.808 C77.3601124,26.808 76.7726462,26.5472 76.3031753,26.0264 C75.9692735,25.6424 75.8019042,25.1816 75.8019042,24.6432 L75.8019042,18.1128 L77.5216238,18.1128 C77.9559471,18.1128 78.3082595,18.4456 78.3082595,18.856 Z" id="形状"></path>
            </g>
        </g>
    </g>
</svg>