<?xml version="1.0" encoding="iso-8859-1"?>
<!-- Generator: Adobe Illustrator 16.0.0, SVG Export Plug-In . SVG Version: 6.00 Build 0)  -->
<!DOCTYPE svg PUBLIC "-//W3C//DTD SVG 1.1//EN" "http://www.w3.org/Graphics/SVG/1.1/DTD/svg11.dtd">
<svg version="1.1" id="&#x56FE;&#x5C42;_1" xmlns="http://www.w3.org/2000/svg" xmlns:xlink="http://www.w3.org/1999/xlink" x="0px"
	 y="0px" width="164px" height="46px" viewBox="0 0 164 46" style="enable-background:new 0 0 164 46;" xml:space="preserve">
<g>
	<g>
		<path style="fill-rule:evenodd;clip-rule:evenodd;fill:#FFFFFF;" d="M1.017,21.599L1.017,21.599c2.324,0,4.226,1.902,4.226,4.227
			V39.87c0,2.153,2.9,2.604,3.418,5.654H5.553l0,0c-2.324,0-4.536-1.275-4.536-4.978V21.599z"/>
		<path style="fill-rule:evenodd;clip-rule:evenodd;fill:#FFFFFF;" d="M6.982,27.193L6.982,27.193c2.325,0,4.226,1.901,4.226,4.226
			v10.564l0,0c-2.324,0-4.226-1.902-4.226-4.226V27.193z"/>
		<path style="fill-rule:evenodd;clip-rule:evenodd;fill:#FFFFFF;" d="M14.751,45.524c4.29,0,7.768-3.478,7.768-7.767h-4.226
			c0,1.956-1.587,3.541-3.542,3.541c-1.957,0-3.543-1.585-3.543-3.541H6.982C6.982,42.047,10.46,45.524,14.751,45.524z"/>
		<path style="fill-rule:evenodd;clip-rule:evenodd;fill:#FFFFFF;" d="M22.519,27.193L22.519,27.193
			c-2.324,0-4.226,1.901-4.226,4.226v10.564l0,0c2.324,0,4.226-1.902,4.226-4.226V27.193z"/>
		<path style="fill-rule:evenodd;clip-rule:evenodd;fill:#FFFFFF;" d="M32.259,27.193c4.436,0,8.134,3.146,8.984,7.331h-2.43
			c-1.094,0-2.034-0.446-2.728-1.293c-0.905-1.106-2.282-1.813-3.826-1.813c-2.728,0-4.939,2.209-4.939,4.939
			c0,2.729,2.211,4.94,4.939,4.94c1.544,0,2.921-0.706,3.826-1.813c0.693-0.849,1.633-1.296,2.728-1.296h2.43
			c-0.85,4.187-4.548,7.334-8.984,7.334c-5.062,0-9.167-4.103-9.167-9.166C23.093,31.296,27.198,27.193,32.259,27.193z"/>
		<path style="fill-rule:evenodd;clip-rule:evenodd;fill:#FFFFFF;" d="M56.808,27.193c5.062,0,9.167,4.103,9.167,9.165
			c0,5.063-4.105,9.166-9.167,9.166c-5.063,0-9.167-4.103-9.167-9.166C47.641,31.296,51.745,27.193,56.808,27.193L56.808,27.193z
			 M56.808,31.419c-2.728,0-4.941,2.209-4.941,4.939c0,2.729,2.213,4.94,4.941,4.94c2.729,0,4.94-2.211,4.94-4.94
			C61.748,33.628,59.536,31.419,56.808,31.419z"/>
		<path style="fill-rule:evenodd;clip-rule:evenodd;fill:#FFFFFF;" d="M46.902,27.193L46.902,27.193
			c-2.324,0-4.226,1.901-4.226,4.226v14.105l0,0c2.324,0,4.226-1.901,4.226-4.226V27.193z"/>
		<path style="fill-rule:evenodd;clip-rule:evenodd;fill:#FFFFFF;" d="M44.789,24.02c1.164,0,2.113-0.95,2.113-2.112
			c0-1.166-0.95-2.114-2.113-2.114c-1.163,0-2.112,0.949-2.112,2.114C42.676,23.07,43.625,24.02,44.789,24.02z"/>
		<path style="fill-rule:evenodd;clip-rule:evenodd;fill:#FFFFFF;" d="M65.975,21.599L65.975,21.599
			c-2.325,0-4.227,1.902-4.227,4.227v14.106l0,0c2.325,0,4.227-1.9,4.227-4.227V21.599z"/>
		<path style="fill-rule:evenodd;clip-rule:evenodd;fill:#FFFFFF;" d="M75.918,27.193c5.063,0,9.166,4.103,9.166,9.165
			c0,5.063-4.104,9.166-9.166,9.166s-9.167-4.103-9.167-9.166C66.751,31.296,70.855,27.193,75.918,27.193L75.918,27.193z
			 M75.918,31.419c-2.728,0-4.942,2.209-4.942,4.939c0,2.729,2.214,4.94,4.942,4.94c2.729,0,4.941-2.211,4.941-4.94
			C80.859,33.628,78.647,31.419,75.918,31.419z"/>
		<path style="fill-rule:evenodd;clip-rule:evenodd;fill:#FFFFFF;" d="M85.084,45.524L85.084,45.524
			c-2.323,0-4.225-1.901-4.225-4.226v-9.166l0,0c2.322,0,4.225,1.901,4.225,4.226V45.524z"/>
		<path style="fill-rule:evenodd;clip-rule:evenodd;fill:#FFFFFF;" d="M101.468,27.193c5.063,0,9.165,4.103,9.165,9.165
			c0,5.063-4.103,9.166-9.165,9.166c-5.062,0-9.166-4.103-9.166-9.166C92.302,31.296,96.406,27.193,101.468,27.193L101.468,27.193z
			 M101.468,31.419c-2.729,0-4.941,2.209-4.941,4.939c0,2.729,2.213,4.94,4.941,4.94c2.728,0,4.939-2.211,4.939-4.94
			C106.407,33.628,104.195,31.419,101.468,31.419z"/>
		<path style="fill-rule:evenodd;clip-rule:evenodd;fill:#FFFFFF;" d="M110.633,45.524L110.633,45.524
			c-2.325,0-4.226-1.901-4.226-4.226v-9.166l0,0c2.324,0,4.226,1.901,4.226,4.226V45.524z"/>
		<path style="fill-rule:evenodd;clip-rule:evenodd;fill:#FFFFFF;" d="M86.061,21.599L86.061,21.599
			c2.324,0,4.226,1.902,4.226,4.227V39.87c0,2.153,2.897,2.604,3.416,5.654h-3.107l0,0c-2.322,0-4.534-1.275-4.534-4.978V21.599z"/>
		<path style="fill-rule:evenodd;clip-rule:evenodd;fill:#FFFFFF;" d="M87.657,27.524h6.807l0,0c0,2.325-1.902,4.229-4.225,4.229
			h-2.582V27.524z"/>
	</g>
	<g>
		<path style="fill-rule:evenodd;clip-rule:evenodd;fill:#FFFFFF;" d="M143.144,19.956c-0.738-1.276-0.602-2.818,0.224-3.932
			c0.99-1.334,1.718-1.568,1.72-2.873c0.002-1.347-0.711-1.722-1.832-2.938c-1.676-1.818-2.059-4.582-0.756-6.835
			c1.603-2.776,5.152-3.728,7.926-2.125c2.779,1.603,3.729,5.153,2.126,7.928c-0.48,0.833-1.138,1.503-1.896,1.987
			c-1.899,1.213-3.68,3.747-2.673,5.938c0.96,2.086,3.658,2.647,5.925,1.099c0.933-0.637,2.058-1.009,3.271-1.009
			c3.205,0,5.805,2.599,5.805,5.804c0,3.207-2.6,5.805-5.805,5.805c-3.002,0-5.47-2.28-5.772-5.202
			c-0.112-1.086-0.676-1.79-1.111-2.076c-0.693-0.458-1.574-0.649-2.25-0.257C146.327,22.258,144.134,21.67,143.144,19.956z"/>
		<path style="fill-rule:evenodd;clip-rule:evenodd;fill:#FFFFFF;" d="M127.393,13.72c-0.175-1.993-2.93-2.338-4.2-4.539
			c-1.604-2.775-0.653-6.326,2.124-7.928c2.776-1.603,6.325-0.651,7.929,2.125c1.184,2.051,0.974,4.526-0.338,6.324
			c-0.834,1.143-3.506,3.688-1.695,5.246c1.056,0.908,3.072,0.189,3.072-1.622c0-1.982,1.605-3.587,3.588-3.587
			c1.98,0,3.587,1.605,3.587,3.587c0,1.981-1.606,3.587-3.587,3.587c-0.741,0-1.43-0.225-2.002-0.61
			c-1.101-0.741-2.81,0.502-2.768,1.693c0.021,0.663-0.148,1.345-0.502,1.959c-0.99,1.715-3.185,2.305-4.9,1.313
			c-1.229-0.709-1.88-2.037-1.785-3.364C126.048,16.024,127.517,15.134,127.393,13.72z"/>
		<path style="fill-rule:evenodd;clip-rule:evenodd;fill:#FFFFFF;" d="M132.601,26.042c0.735,1.277,0.6,2.819-0.226,3.934
			c-0.989,1.334-1.718,1.568-1.72,2.872c-0.002,1.347,0.712,1.724,1.831,2.939c1.678,1.815,2.063,4.581,0.759,6.834
			c-1.604,2.778-5.152,3.729-7.929,2.124c-2.777-1.599-3.728-5.152-2.124-7.927c0.479-0.834,1.137-1.503,1.896-1.987
			c1.898-1.214,3.679-3.748,2.673-5.938c-0.96-2.087-3.658-2.645-5.927-1.099c-0.929,0.637-2.056,1.01-3.271,1.01
			c-3.204,0-5.802-2.598-5.803-5.805c0.001-3.205,2.599-5.804,5.803-5.804c3.004,0,5.474,2.279,5.775,5.202
			c0.112,1.086,0.677,1.791,1.11,2.079c0.695,0.454,1.574,0.645,2.252,0.253C129.413,23.74,131.61,24.327,132.601,26.042z"/>
		<path style="fill-rule:evenodd;clip-rule:evenodd;fill:#FFFFFF;" d="M148.349,32.278c0.175,1.993,2.934,2.338,4.202,4.54
			c1.603,2.774,0.653,6.328-2.126,7.927c-2.773,1.604-6.323,0.654-7.926-2.124c-1.184-2.051-0.975-4.526,0.335-6.324
			c0.834-1.142,3.506-3.688,1.698-5.245c-1.057-0.909-3.073-0.189-3.073,1.622c0,1.981-1.606,3.587-3.587,3.587
			c-1.982,0-3.588-1.605-3.588-3.587c0-1.983,1.605-3.587,3.588-3.587c0.739,0,1.428,0.224,2,0.607
			c1.102,0.742,2.813-0.501,2.77-1.693c-0.023-0.661,0.148-1.345,0.502-1.959c0.989-1.715,3.184-2.304,4.9-1.313
			c1.229,0.711,1.877,2.04,1.784,3.362C149.695,29.976,148.225,30.866,148.349,32.278z"/>
	</g>
	<g>
		<path style="fill-rule:evenodd;clip-rule:evenodd;fill:#FFFFFF;" d="M51.363,8.742h0.312h0.665h1.808
			c0.127,0,0.238,0.051,0.321,0.149c0.083,0.097,0.116,0.214,0.097,0.339l-0.444,2.869c-0.034,0.22,0.005,0.221,0.112,0.221
			c0.107,0,0.248,0.055,0.331,0.159c0.083,0.104,0.111,0.229,0.081,0.358l-0.741,3.237c-0.045,0.193-0.213,0.328-0.413,0.328h-0.525
			c-0.133,0-0.247-0.054-0.33-0.157c-0.083-0.102-0.113-0.226-0.084-0.356l0.494-2.268c0.046-0.208,0.106-0.378-0.107-0.378
			c-0.128,0-0.239-0.051-0.322-0.149s-0.115-0.216-0.095-0.342l0.419-2.52c0.048-0.284-0.086-0.37-0.289-0.37
			c-0.255,0-0.313,0.213-0.313,0.409v6.182c0,0.233-0.19,0.424-0.423,0.424h-0.553c-0.232,0-0.423-0.191-0.423-0.424V9.167
			C50.94,8.933,51.13,8.742,51.363,8.742L51.363,8.742z M55.278,16.889c-0.233,0-0.423-0.19-0.423-0.423v-2.831
			c0-0.234,0.19-0.423,0.423-0.423h0.79c0.233,0,0.423,0.189,0.423,0.423v1.027v0.582v0.259c0,0.144,0.115,0.26,0.259,0.26
			c0.144,0,0.26-0.116,0.26-0.26v-0.154v-0.687v-1.716c0-0.233-0.19-0.423-0.424-0.423H55.2c-0.233,0-0.425-0.19-0.425-0.423v-0.27
			c0-0.232,0.191-0.424,0.425-0.424h0.087h1.179h0.137c0.224,0,0.407-0.182,0.407-0.406s-0.183-0.406-0.407-0.406h-0.562h-0.707
			c-0.233,0-0.424-0.19-0.424-0.424V9.899c0-0.232,0.19-0.424,0.424-0.424h1.26c0.213,0,0.391-0.155,0.419-0.366
			c0.029-0.207,0.206-0.368,0.42-0.368h0.797c0.214,0,0.391,0.161,0.419,0.368c0.029,0.211,0.207,0.366,0.419,0.366h1.259
			c0.234,0,0.424,0.192,0.424,0.424v0.271c0,0.233-0.189,0.424-0.424,0.424h-0.706H59.06c-0.225,0-0.406,0.182-0.406,0.406
			s0.181,0.406,0.406,0.406h0.138h1.179h0.088c0.233,0,0.423,0.191,0.423,0.424v0.27c0,0.233-0.19,0.423-0.423,0.423h-1.387
			c-0.234,0-0.423,0.19-0.423,0.423v1.716v0.687v0.154c0,0.144,0.116,0.26,0.259,0.26c0.143,0,0.259-0.116,0.259-0.26v-0.259v-0.582
			v-1.027c0-0.234,0.19-0.423,0.425-0.423h0.788c0.233,0,0.423,0.189,0.423,0.423v2.831c0,0.233-0.19,0.423-0.423,0.423H55.278z"/>
		<path style="fill-rule:evenodd;clip-rule:evenodd;fill:#FFFFFF;" d="M67.683,16.878h-0.667c-0.14,0-0.261-0.062-0.342-0.175
			c-0.082-0.114-0.104-0.248-0.06-0.38l0.773-2.369c0.058-0.177,0.216-0.292,0.403-0.292h0.667c0.141,0,0.26,0.062,0.342,0.175
			c0.082,0.114,0.103,0.247,0.059,0.38l-0.772,2.369C68.026,16.762,67.869,16.878,67.683,16.878L67.683,16.878z M75.892,12.252
			c-0.151,0-0.306,0-0.462,0c-0.304,0-0.612-0.01-0.925-0.029c-0.312-0.019-0.624-0.048-0.936-0.09
			c-0.282-0.037-0.558-0.091-0.829-0.162c-0.063-0.016-0.12-0.018-0.185-0.006c-0.516,0.097-1.021,0.168-1.513,0.213
			c-0.336,0.031-0.644,0.056-0.927,0.069c-0.121,0.006-0.226-0.034-0.313-0.116c-0.086-0.084-0.131-0.187-0.131-0.307v-0.441
			c0-0.209,0.151-0.385,0.357-0.418c0.169-0.025,0.344-0.051,0.522-0.078c-0.068-0.057-0.136-0.117-0.203-0.18
			c-0.13-0.121-0.171-0.3-0.105-0.465c0.063-0.166,0.215-0.269,0.394-0.269h0.613c0.098,0,0.182,0.03,0.258,0.089
			c0.138,0.106,0.278,0.204,0.419,0.289c0.139,0.083,0.277,0.16,0.415,0.228c0.085,0.041,0.169,0.053,0.263,0.037
			c0.072-0.014,0.142-0.027,0.212-0.042c0.214-0.042,0.959-0.232,1.184-0.457c0.224-0.224,0.079-0.38-0.139-0.38h-3.767
			c-0.232,0-0.423-0.19-0.423-0.423V9.166c0-0.233,0.19-0.424,0.423-0.424h5.798c0.234,0,0.423,0.19,0.423,0.424v0.468v0.41
			c0,0.075-0.016,0.14-0.052,0.205c-0.082,0.147-0.194,0.285-0.337,0.413c-0.177,0.157-0.385,0.304-0.626,0.44
			c0.208-0.014,0.394-0.028,0.557-0.042c0.123-0.01,0.232,0.027,0.323,0.11c0.091,0.083,0.136,0.189,0.136,0.312v0.348
			C76.315,12.062,76.125,12.252,75.892,12.252L75.892,12.252z M74.189,14.858h1.726c0.233,0,0.423,0.19,0.423,0.423v0.248
			c0,0.233-0.189,0.423-0.423,0.423h-1.726c-0.234,0-0.424,0.191-0.424,0.424v0.067c0,0.232-0.19,0.423-0.422,0.423h-0.7
			c-0.233,0-0.424-0.191-0.424-0.423v-0.067c0-0.233-0.19-0.424-0.423-0.424h-1.681c-0.232,0-0.423-0.189-0.423-0.423v-0.248
			c0-0.233,0.19-0.423,0.423-0.423h1.681c0.233,0,0.423-0.19,0.423-0.423v-0.021c0-0.233-0.19-0.424-0.423-0.424h-1.703
			c-0.233,0-0.423-0.189-0.423-0.422v-0.248c0-0.234,0.19-0.424,0.423-0.424h1.764c0.176,0,0.327-0.101,0.393-0.266
			c0.062-0.155,0.216-0.266,0.393-0.266h0.76c0.176,0,0.327,0.103,0.393,0.265c0.063,0.156,0.216,0.266,0.393,0.266h1.702
			c0.234,0,0.423,0.189,0.423,0.424v0.248c0,0.233-0.189,0.422-0.423,0.422h-1.702c-0.234,0-0.424,0.191-0.424,0.424v0.021
			C73.766,14.667,73.956,14.858,74.189,14.858z"/>
		<path style="fill-rule:evenodd;clip-rule:evenodd;fill:#FFFFFF;" d="M82.074,16.378l0.186-3.96
			c0.01-0.225,0.195-0.403,0.422-0.403h0.078c0.121,0,0.224,0.045,0.307,0.131c0.083,0.088,0.122,0.193,0.115,0.313l-0.185,3.959
			c-0.012,0.226-0.197,0.404-0.423,0.404h-0.078c-0.12,0-0.224-0.044-0.307-0.131C82.107,16.603,82.067,16.497,82.074,16.378
			L82.074,16.378z M85.886,12.419l0.177,3.959c0.004,0.12-0.037,0.225-0.118,0.311c-0.084,0.087-0.188,0.131-0.305,0.131h-0.079
			c-0.229,0-0.413-0.178-0.425-0.404l-0.187-3.959c-0.007-0.12,0.036-0.225,0.118-0.313c0.082-0.086,0.187-0.131,0.308-0.131h0.086
			C85.688,12.015,85.874,12.194,85.886,12.419L85.886,12.419z M91.39,13.821h0.1c0.234,0,0.423,0.188,0.423,0.422v0.17
			c0,0.232-0.188,0.422-0.423,0.422h-0.1c-0.234,0-0.425,0.189-0.425,0.423v1.128c0,0.233-0.189,0.423-0.423,0.423h-0.687
			c-0.236,0-0.424-0.19-0.424-0.423v-1.128c0-0.234-0.192-0.423-0.424-0.423h-2.242c-0.237,0-0.426-0.19-0.426-0.422v-0.17
			c0-0.233,0.188-0.422,0.426-0.422h2.242c0.231,0,0.424-0.192,0.424-0.424V9.223c0-0.233,0.188-0.424,0.424-0.424h0.687
			c0.233,0,0.423,0.19,0.423,0.424v4.174C90.965,13.629,91.155,13.821,91.39,13.821L91.39,13.821z M84.636,10.313
			c0-0.312,0.221-0.427,0.412-0.433l0.622-0.019c0.228-0.008,0.409-0.194,0.409-0.423v-0.18c0-0.118-0.043-0.222-0.127-0.305
			c-0.086-0.082-0.188-0.123-0.309-0.119l-3.079,0.097c-0.229,0.007-0.41,0.194-0.41,0.423v0.179c0,0.119,0.044,0.222,0.13,0.305
			c0.085,0.082,0.188,0.123,0.308,0.119l0.42-0.015c0.208-0.008,0.431,0.084,0.449,0.319c0.027,0.328-0.179,0.444-0.479,0.444
			h-0.517c-0.232,0-0.424,0.189-0.424,0.423v0.124c0,0.233,0.191,0.423,0.424,0.423h0.565c0.232,0,0.422,0.19,0.422,0.423v4.298
			c0,0.233,0.189,0.424,0.422,0.424h0.338c0.233,0,0.424-0.191,0.424-0.424V12.1c0-0.233,0.19-0.423,0.424-0.423h0.552
			c0.235,0,0.424-0.19,0.424-0.423v-0.124c0-0.233-0.188-0.423-0.424-0.423H85.06C84.826,10.707,84.636,10.547,84.636,10.313z"/>
		<path style="fill-rule:evenodd;clip-rule:evenodd;fill:#FFFFFF;" d="M106.44,13.696c-0.213,0.296-0.461,0.589-0.744,0.879
			c-0.093,0.095-0.134,0.216-0.118,0.349c0.019,0.132,0.088,0.24,0.201,0.309c0.172,0.104,0.345,0.2,0.52,0.291
			c0.231,0.12,0.46,0.215,0.688,0.284c0.18,0.055,0.3,0.216,0.3,0.405v0.209c0,0.134-0.058,0.25-0.162,0.332
			c-0.104,0.083-0.228,0.111-0.359,0.081c-0.311-0.072-0.625-0.181-0.94-0.322c-0.406-0.184-0.798-0.404-1.177-0.662
			c-0.147-0.1-0.33-0.1-0.477,0c-0.381,0.257-0.774,0.478-1.183,0.662c-0.32,0.142-0.635,0.25-0.949,0.322
			c-0.13,0.03-0.255,0.002-0.358-0.081c-0.105-0.082-0.161-0.197-0.161-0.332v-0.209c0-0.189,0.119-0.35,0.301-0.405
			c0.226-0.069,0.455-0.164,0.688-0.284c0.174-0.091,0.349-0.187,0.518-0.291c0.115-0.07,0.184-0.177,0.201-0.309
			c0.015-0.132-0.023-0.253-0.119-0.349c-0.222-0.229-0.421-0.459-0.6-0.694c-0.093-0.12-0.179-0.237-0.255-0.353
			c-0.086-0.133-0.094-0.293-0.018-0.434c0.075-0.141,0.213-0.222,0.371-0.222h0.361c0.138,0,0.259,0.059,0.34,0.169
			c0.1,0.13,0.221,0.276,0.365,0.433c0.134,0.146,0.28,0.294,0.441,0.447c0.164,0.155,0.422,0.154,0.586-0.002
			c0.237-0.229,0.443-0.449,0.616-0.659c0.108-0.129,0.131-0.299,0.061-0.451c-0.072-0.152-0.217-0.244-0.384-0.244h-2.779
			c-0.234,0-0.424-0.189-0.424-0.423v-0.191c0-0.233,0.189-0.424,0.424-0.424h1.016c0.232,0,0.422-0.19,0.422-0.423v-0.022
			c0-0.234-0.189-0.423-0.422-0.423h-1.016c-0.234,0-0.424-0.19-0.424-0.424v-0.192c0-0.231,0.189-0.422,0.424-0.422h1.016
			c0.232,0,0.422-0.189,0.422-0.423V9.178c0-0.233,0.19-0.423,0.423-0.423h0.53c0.233,0,0.424,0.19,0.424,0.423v0.021
			c0,0.234,0.189,0.423,0.423,0.423h1.139c0.232,0,0.425,0.191,0.425,0.422v0.192c0,0.234-0.192,0.424-0.425,0.424h-1.139
			c-0.233,0-0.423,0.189-0.423,0.423v0.022c0,0.233,0.189,0.423,0.423,0.423h1.139c0.232,0,0.425,0.19,0.425,0.424
			C107.016,12.779,106.948,12.981,106.44,13.696L106.44,13.696z M100.257,10.937c0-0.232,0.189-0.422,0.424-0.422h0.417
			c0.233,0,0.422-0.19,0.422-0.423v-0.27c0-0.234-0.188-0.425-0.422-0.425h-0.417c-0.206,0-0.38-0.148-0.417-0.343
			c-0.039-0.202-0.211-0.344-0.415-0.344h-0.613c-0.205,0-0.379,0.148-0.416,0.344c-0.038,0.201-0.21,0.343-0.416,0.343h-0.364
			c-0.232,0-0.423,0.19-0.423,0.425v0.27c0,0.233,0.19,0.423,0.423,0.423h0.35c0.233,0,0.422,0.19,0.422,0.422v1.993
			c0,0.099-0.027,0.184-0.088,0.261l-0.831,1.063c-0.103,0.131-0.12,0.298-0.047,0.447c0.071,0.149,0.215,0.238,0.38,0.238h0.164
			c0.233,0,0.422,0.19,0.422,0.423v0.243c0,0.098-0.032,0.181-0.099,0.248c-0.058,0.056-0.125,0.089-0.204,0.099
			c-0.15,0.018-0.271,0.106-0.336,0.246l-0.059,0.129c-0.062,0.136-0.05,0.28,0.029,0.404c0.081,0.125,0.209,0.193,0.355,0.193
			h0.519c0.174,0,0.333-0.032,0.484-0.095c0.15-0.063,0.283-0.152,0.396-0.265s0.199-0.242,0.265-0.389
			c0.063-0.147,0.096-0.307,0.096-0.48v-2.066c0-0.098,0.027-0.183,0.089-0.261l0.935-1.198c0.103-0.131,0.12-0.298,0.047-0.446
			s-0.215-0.237-0.381-0.237h-0.266c-0.234,0-0.424-0.19-0.424-0.423V10.937z"/>
		<circle style="fill-rule:evenodd;clip-rule:evenodd;fill:#FFFFFF;" cx="67.8" cy="9.504" r="0.762"/>
		<circle style="fill-rule:evenodd;clip-rule:evenodd;fill:#FFFFFF;" cx="67.8" cy="11.881" r="0.761"/>
		<circle style="fill-rule:evenodd;clip-rule:evenodd;fill:#FFFFFF;" cx="87.807" cy="9.696" r="0.761"/>
		<circle style="fill-rule:evenodd;clip-rule:evenodd;fill:#FFFFFF;" cx="87.807" cy="12.073" r="0.761"/>
	</g>
</g>
</svg>
